<mxfile host="Electron" agent="Mozilla/5.0 (Windows NT 10.0; Win64; x64) AppleWebKit/537.36 (KHTML, like Gecko) draw.io/26.1.1 Chrome/132.0.6834.210 Electron/34.3.3 Safari/537.36" version="26.1.1">
  <diagram name="Страница — 1" id="boBSxxWM6M7pVq6Nzn3d">
    <mxGraphModel dx="3952" dy="5014" grid="1" gridSize="10" guides="1" tooltips="1" connect="1" arrows="0" fold="1" page="1" pageScale="1" pageWidth="827" pageHeight="1169" math="0" shadow="0">
      <root>
        <mxCell id="0" />
        <mxCell id="1" parent="0" />
        <mxCell id="EJNOuzRUjkJhy4srBCbP-35" style="edgeStyle=orthogonalEdgeStyle;rounded=0;orthogonalLoop=1;jettySize=auto;html=1;entryX=0;entryY=0.5;entryDx=0;entryDy=0;" parent="1" source="EJNOuzRUjkJhy4srBCbP-1" target="EJNOuzRUjkJhy4srBCbP-5" edge="1">
          <mxGeometry relative="1" as="geometry" />
        </mxCell>
        <mxCell id="EJNOuzRUjkJhy4srBCbP-36" style="edgeStyle=orthogonalEdgeStyle;rounded=0;orthogonalLoop=1;jettySize=auto;html=1;exitX=0.5;exitY=1;exitDx=0;exitDy=0;entryX=0.5;entryY=0;entryDx=0;entryDy=0;" parent="1" source="EJNOuzRUjkJhy4srBCbP-1" target="EJNOuzRUjkJhy4srBCbP-11" edge="1">
          <mxGeometry relative="1" as="geometry" />
        </mxCell>
        <mxCell id="EJNOuzRUjkJhy4srBCbP-37" style="edgeStyle=orthogonalEdgeStyle;rounded=0;orthogonalLoop=1;jettySize=auto;html=1;exitX=0;exitY=0.5;exitDx=0;exitDy=0;entryX=1;entryY=0.5;entryDx=0;entryDy=0;" parent="1" source="EJNOuzRUjkJhy4srBCbP-1" target="EJNOuzRUjkJhy4srBCbP-3" edge="1">
          <mxGeometry relative="1" as="geometry" />
        </mxCell>
        <object label="&lt;font style=&quot;font-size: 24px;&quot;&gt;&lt;b&gt;C#&lt;/b&gt;&lt;/font&gt;" id="EJNOuzRUjkJhy4srBCbP-1">
          <mxCell style="rounded=0;whiteSpace=wrap;html=1;" parent="1" vertex="1">
            <mxGeometry x="1120" y="-1800" width="240" height="80" as="geometry" />
          </mxCell>
        </object>
        <mxCell id="EJNOuzRUjkJhy4srBCbP-38" style="edgeStyle=orthogonalEdgeStyle;rounded=0;orthogonalLoop=1;jettySize=auto;html=1;exitX=0.5;exitY=1;exitDx=0;exitDy=0;entryX=0.5;entryY=0;entryDx=0;entryDy=0;" parent="1" source="EJNOuzRUjkJhy4srBCbP-3" target="EJNOuzRUjkJhy4srBCbP-7" edge="1">
          <mxGeometry relative="1" as="geometry" />
        </mxCell>
        <mxCell id="EJNOuzRUjkJhy4srBCbP-3" value="&lt;font style=&quot;font-size: 24px;&quot;&gt;&lt;b&gt;Хар-ка ЯП&lt;/b&gt;&lt;/font&gt;" style="rounded=0;whiteSpace=wrap;html=1;" parent="1" vertex="1">
          <mxGeometry x="560" y="-1800" width="200" height="80" as="geometry" />
        </mxCell>
        <mxCell id="EJNOuzRUjkJhy4srBCbP-39" style="edgeStyle=orthogonalEdgeStyle;rounded=0;orthogonalLoop=1;jettySize=auto;html=1;exitX=0.5;exitY=1;exitDx=0;exitDy=0;" parent="1" source="EJNOuzRUjkJhy4srBCbP-5" target="EJNOuzRUjkJhy4srBCbP-9" edge="1">
          <mxGeometry relative="1" as="geometry" />
        </mxCell>
        <mxCell id="EJNOuzRUjkJhy4srBCbP-5" value="&lt;font style=&quot;font-size: 24px;&quot;&gt;&lt;b&gt;.NET платформа&lt;/b&gt;&lt;/font&gt;" style="rounded=0;whiteSpace=wrap;html=1;" parent="1" vertex="1">
          <mxGeometry x="1680" y="-1800" width="320" height="80" as="geometry" />
        </mxCell>
        <mxCell id="EJNOuzRUjkJhy4srBCbP-7" value="&lt;blockquote style=&quot;margin: 0 0 0 40px; border: none; padding: 0px;&quot;&gt;&lt;font style=&quot;font-size: 18px;&quot;&gt;&lt;font style=&quot;&quot;&gt;&lt;b&gt;# ООП&lt;/b&gt; - классы, наследование, инкапсуляция, полиморфизм, абстракции.&amp;nbsp;&lt;/font&gt;&lt;span style=&quot;background-color: transparent; color: light-dark(rgb(0, 0, 0), rgb(255, 255, 255));&quot;&gt;Полная поддержка ООП принципов&lt;/span&gt;&lt;/font&gt;&lt;div&gt;&lt;font style=&quot;font-size: 18px;&quot;&gt;&lt;br&gt;&lt;/font&gt;&lt;/div&gt;&lt;div&gt;&lt;font style=&quot;font-size: 18px;&quot;&gt;&lt;b&gt;# Статическая типизация&lt;/b&gt; - типы переменных определяются на этапе компиляции, поддержка var для неявных типизация, но всё равно определяется на этапе компиляции&lt;/font&gt;&lt;/div&gt;&lt;div&gt;&lt;font style=&quot;font-size: 18px;&quot;&gt;&lt;br&gt;&lt;/font&gt;&lt;/div&gt;&lt;div&gt;&lt;span style=&quot;font-size: 18px;&quot;&gt;&lt;b&gt;# Управляемый код&lt;/b&gt; - автоматически собирает мусор и управляет памятью и безопасностью&lt;/span&gt;&lt;/div&gt;&lt;div&gt;&lt;span style=&quot;font-size: 18px;&quot;&gt;&lt;br&gt;&lt;/span&gt;&lt;/div&gt;&lt;div&gt;&lt;span style=&quot;font-size: 18px;&quot;&gt;&lt;b&gt;# Кроссплатформенный&lt;/b&gt; - .NET Core работает на всех ОС (win, linux, macOS)&lt;/span&gt;&lt;/div&gt;&lt;div&gt;&lt;span style=&quot;font-size: 18px;&quot;&gt;&lt;br&gt;&lt;/span&gt;&lt;/div&gt;&lt;div&gt;&lt;span style=&quot;font-size: 18px;&quot;&gt;&lt;b&gt;# Асинхронное программирование&lt;/b&gt; - async/await упрощает написание асинхронного кода без сложных callback&amp;nbsp;&lt;/span&gt;&lt;/div&gt;&lt;div&gt;&lt;span style=&quot;font-size: 18px;&quot;&gt;&lt;br&gt;&lt;/span&gt;&lt;/div&gt;&lt;div&gt;&lt;span style=&quot;font-size: 18px;&quot;&gt;&lt;br&gt;&lt;/span&gt;&lt;/div&gt;&lt;div&gt;&lt;span style=&quot;font-size: 18px;&quot;&gt;&lt;b&gt;# LINQ&amp;nbsp; &lt;/b&gt;- позволяет писать SQL-запросы прямо в C# для работы с коллекциями БД и XML файлами&lt;/span&gt;&lt;/div&gt;&lt;div&gt;&lt;span style=&quot;font-size: 18px;&quot;&gt;&lt;br&gt;&lt;/span&gt;&lt;/div&gt;&lt;div&gt;&lt;span style=&quot;font-size: 18px;&quot;&gt;&lt;b&gt;# Безопасность&lt;/b&gt; - поддержка механизмов защиты: исключения, проверки границы массивов, управления доступом&lt;/span&gt;&lt;/div&gt;&lt;div&gt;&lt;span style=&quot;font-size: 18px;&quot;&gt;&lt;br&gt;&lt;/span&gt;&lt;/div&gt;&lt;div&gt;&lt;span style=&quot;font-size: 18px;&quot;&gt;&lt;b&gt;# Совместимость с .NET&lt;/b&gt; - доступ к огромной стандартной библиотеке (коллекции, файлы, сеть, криптография итд)&lt;/span&gt;&lt;/div&gt;&lt;div&gt;&lt;span style=&quot;font-size: 18px;&quot;&gt;&lt;br&gt;&lt;/span&gt;&lt;/div&gt;&lt;div&gt;&lt;span style=&quot;font-size: 18px;&quot;&gt;&lt;b&gt;# Cовременные фичи&lt;/b&gt; - Pattern Matching (сопоставление с образцом, records (неизменные данные), nullable reference types (защита от null-исключений), top-level statements (упрощение кода)&lt;/span&gt;&lt;/div&gt;&lt;div&gt;&lt;span style=&quot;font-size: 18px;&quot;&gt;&lt;br&gt;&lt;/span&gt;&lt;/div&gt;&lt;/blockquote&gt;&lt;div&gt;&lt;br&gt;&lt;/div&gt;" style="rounded=0;whiteSpace=wrap;html=1;align=left;" parent="1" vertex="1">
          <mxGeometry x="400" y="-1600" width="520" height="960" as="geometry" />
        </mxCell>
        <mxCell id="EJNOuzRUjkJhy4srBCbP-9" value="&lt;blockquote style=&quot;margin: 0 0 0 40px; border: none; padding: 0px;&quot;&gt;&lt;div style=&quot;text-align: left;&quot;&gt;&lt;span style=&quot;font-size: 18px; color: light-dark(rgb(0, 0, 0), rgb(255, 255, 255)); background-color: rgb(247, 247, 250);&quot; class=&quot;b&quot;&gt;&lt;b&gt;# Поддержка нескольких языков &lt;/b&gt;-&amp;nbsp;&lt;/span&gt;&lt;span style=&quot;font-size: 18px; color: light-dark(rgb(0, 0, 0), rgb(255, 255, 255)); background-color: rgb(247, 247, 250);&quot;&gt;Common Language Runtime (CLR) - общеязыковая среда исполнения, благодаря чему .NET поддерживает несколько языков: наряду с C# это также VB.NET, C++, F#, а также различные диалекты других языков, привязанные к .NET, например, Delphi.NET. При компиляции код на любом из этих языков компилируется в сборку на общем языке CIL (Common Intermediate Language) - своего рода ассемблер платформы .NET&lt;/span&gt;&lt;/div&gt;&lt;div style=&quot;text-align: left;&quot;&gt;&lt;font face=&quot;Helvetica&quot; style=&quot;font-size: 18px;&quot;&gt;&lt;span style=&quot;background-color: rgb(247, 247, 250);&quot;&gt;&lt;br&gt;&lt;/span&gt;&lt;/font&gt;&lt;/div&gt;&lt;div style=&quot;text-align: left;&quot;&gt;&lt;font face=&quot;Helvetica&quot; style=&quot;font-size: 18px;&quot;&gt;&lt;span style=&quot;background-color: rgb(247, 247, 250);&quot;&gt;&lt;b&gt;# Мощная библиотека классов&lt;/b&gt; - при написании любого приложения .NET подключает всю библиотеку классов&lt;/span&gt;&lt;/font&gt;&lt;/div&gt;&lt;div style=&quot;text-align: left;&quot;&gt;&lt;font face=&quot;Helvetica&quot; style=&quot;font-size: 18px;&quot;&gt;&lt;span style=&quot;background-color: rgb(247, 247, 250);&quot;&gt;&lt;br&gt;&lt;/span&gt;&lt;/font&gt;&lt;/div&gt;&lt;div style=&quot;text-align: left;&quot;&gt;&lt;font style=&quot;font-size: 18px;&quot; face=&quot;Helvetica&quot;&gt;&lt;font style=&quot;&quot;&gt;&lt;span style=&quot;background-color: rgb(247, 247, 250);&quot;&gt;&lt;b&gt;# Разнообразие технологий&lt;/b&gt; -&amp;nbsp;&lt;/span&gt;&lt;/font&gt;&lt;span style=&quot;background-color: rgb(247, 247, 250); color: light-dark(rgb(0, 0, 0), rgb(255, 255, 255));&quot;&gt;&lt;font style=&quot;&quot;&gt;Например, для работы с базами данных в этом стеке технологий предназначена технология ADO.NET и Entity Framework Core. Для построения графических приложений с богатым насыщенным интерфейсом - технология WPF и WinUI, для создания более простых графических приложений - Windows Forms. Для разработки кроссплатформенных мобильных и десктопных приложений - Xamarin/MAUI. Для создания веб-сайтов и веб-приложений - ASP.NET&lt;/font&gt;&lt;/span&gt;&lt;/font&gt;&lt;/div&gt;&lt;div style=&quot;text-align: left;&quot;&gt;&lt;font style=&quot;font-size: 18px;&quot; face=&quot;Helvetica&quot;&gt;&lt;span style=&quot;background-color: rgb(247, 247, 250); color: light-dark(rgb(0, 0, 0), rgb(255, 255, 255));&quot;&gt;&lt;font style=&quot;&quot;&gt;&lt;br&gt;&lt;/font&gt;&lt;/span&gt;&lt;/font&gt;&lt;/div&gt;&lt;/blockquote&gt;&lt;div&gt;&lt;font style=&quot;font-size: 18px;&quot; face=&quot;Helvetica&quot;&gt;&lt;span style=&quot;background-color: rgb(247, 247, 250); text-align: left; color: light-dark(rgb(0, 0, 0), rgb(255, 255, 255));&quot;&gt;&lt;font style=&quot;&quot;&gt;&lt;br&gt;&lt;/font&gt;&lt;/span&gt;&lt;/font&gt;&lt;/div&gt;" style="rounded=0;whiteSpace=wrap;html=1;align=center;" parent="1" vertex="1">
          <mxGeometry x="1560" y="-1600" width="560" height="960" as="geometry" />
        </mxCell>
        <mxCell id="EJNOuzRUjkJhy4srBCbP-40" style="edgeStyle=orthogonalEdgeStyle;rounded=0;orthogonalLoop=1;jettySize=auto;html=1;exitX=0.5;exitY=1;exitDx=0;exitDy=0;entryX=0.5;entryY=0;entryDx=0;entryDy=0;" parent="1" source="EJNOuzRUjkJhy4srBCbP-11" target="EJNOuzRUjkJhy4srBCbP-17" edge="1">
          <mxGeometry relative="1" as="geometry" />
        </mxCell>
        <mxCell id="EJNOuzRUjkJhy4srBCbP-11" value="&lt;font style=&quot;font-size: 24px;&quot;&gt;&lt;b&gt;Этапы компиляции из высокого уровня в низкий (ЯП - компилируемый, а не интерпретируемый)&lt;/b&gt;&lt;/font&gt;" style="rounded=0;whiteSpace=wrap;html=1;" parent="1" vertex="1">
          <mxGeometry x="1000" y="-1600" width="480" height="160" as="geometry" />
        </mxCell>
        <mxCell id="EJNOuzRUjkJhy4srBCbP-13" value="&lt;blockquote style=&quot;margin: 0 0 0 40px; border: none; padding: 0px;&quot;&gt;&lt;font style=&quot;font-size: 18px;&quot;&gt;&lt;b&gt;1. Написание кода&lt;/b&gt; - на C# или на др. языке в .NET&lt;/font&gt;&lt;div&gt;&lt;font size=&quot;3&quot;&gt;&lt;br&gt;&lt;/font&gt;&lt;/div&gt;&lt;div&gt;&lt;font size=&quot;3&quot;&gt;&lt;b&gt;2. В C#&lt;/b&gt; -&amp;nbsp; компилятор&amp;nbsp;&lt;span style=&quot;background-color: transparent; color: light-dark(rgb(0, 0, 0), rgb(255, 255, 255));&quot;&gt;Roslyn&lt;/span&gt;&lt;span style=&quot;background-color: transparent; color: light-dark(rgb(0, 0, 0), rgb(255, 255, 255));&quot;&gt;&amp;nbsp;преобразует код в CIL - промежуточный код, который понимает CLR&lt;/span&gt;&lt;/font&gt;&lt;/div&gt;&lt;div&gt;&lt;font size=&quot;3&quot;&gt;&lt;b&gt;2.1. Результат сборки .exe | .dll&amp;nbsp;&lt;/b&gt;&lt;/font&gt;&lt;/div&gt;&lt;div&gt;&lt;font size=&quot;3&quot;&gt;&lt;b&gt;2.2 Что внутри?&lt;/b&gt; IL-код (инструкции CLR), метаданные (информации о типах, методах, зависимостях), манифест (версии, ресурсы, ссылки на другие сборки)&lt;/font&gt;&lt;/div&gt;&lt;div&gt;&lt;font size=&quot;3&quot;&gt;&lt;br&gt;&lt;/font&gt;&lt;/div&gt;&lt;div&gt;&lt;font size=&quot;3&quot;&gt;&lt;b&gt;3. Загрузка сборки в CLR&lt;/b&gt; - при запуске CLR загружает сборку, JIT-компилятор начинает работу&lt;/font&gt;&lt;/div&gt;&lt;div&gt;&lt;font size=&quot;3&quot;&gt;&lt;br&gt;&lt;/font&gt;&lt;/div&gt;&lt;div&gt;&lt;font size=&quot;3&quot;&gt;&lt;b&gt;4. JIT-компиляция &lt;/b&gt;- компиляция в нативный машинный код, которая происходит в процессе выполнения программы, а не заранее, как в cpp, оптимизирует код под текущую платформу.&lt;/font&gt;&lt;/div&gt;&lt;div&gt;&lt;font size=&quot;3&quot;&gt;&lt;b&gt;4.1 Как работает JIT-компилятор?&lt;/b&gt; Он компилирует код в машинный и в последующем использует его&lt;/font&gt;&lt;/div&gt;&lt;div&gt;&lt;font size=&quot;3&quot;&gt;&lt;br&gt;&lt;/font&gt;&lt;/div&gt;&lt;div&gt;&lt;font size=&quot;3&quot;&gt;&lt;b&gt;5. Выполнение машинного кода&lt;/b&gt; - оптимизированный машинный код выполняется процессором, CLR - управляет памятью, безопасностью, исключениями&lt;/font&gt;&lt;/div&gt;&lt;/blockquote&gt;" style="rounded=0;whiteSpace=wrap;html=1;align=left;" parent="1" vertex="1">
          <mxGeometry x="1000" y="-1120" width="480" height="480" as="geometry" />
        </mxCell>
        <mxCell id="EJNOuzRUjkJhy4srBCbP-41" style="edgeStyle=orthogonalEdgeStyle;rounded=0;orthogonalLoop=1;jettySize=auto;html=1;exitX=0.5;exitY=1;exitDx=0;exitDy=0;entryX=0.5;entryY=0;entryDx=0;entryDy=0;" parent="1" source="EJNOuzRUjkJhy4srBCbP-17" target="EJNOuzRUjkJhy4srBCbP-13" edge="1">
          <mxGeometry relative="1" as="geometry" />
        </mxCell>
        <mxCell id="EJNOuzRUjkJhy4srBCbP-17" value="&lt;font style=&quot;font-size: 18px;&quot;&gt;&lt;b&gt;Общая модель&lt;/b&gt;&lt;/font&gt;&lt;div&gt;&lt;span style=&quot;font-size: 18px;&quot;&gt;&lt;br&gt;&lt;/span&gt;&lt;/div&gt;&lt;blockquote style=&quot;margin: 0 0 0 40px; border: none; padding: 0px;&quot;&gt;&lt;div&gt;&lt;div style=&quot;text-align: left;&quot;&gt;&lt;font size=&quot;3&quot;&gt;Написание С# кода -&amp;gt; Roslyn компилирует -&amp;gt; CIL-код (аналог byte-код) -&amp;gt; CLR-вирт.машина (сборка мусора, многопоточность, сборка типов, генерация CIL в машинный код с помощью JIT-компилятора) -&amp;gt; выполнение кода&amp;nbsp;&lt;/font&gt;&lt;/div&gt;&lt;/div&gt;&lt;/blockquote&gt;" style="rounded=0;whiteSpace=wrap;html=1;" parent="1" vertex="1">
          <mxGeometry x="1000" y="-1360" width="480" height="160" as="geometry" />
        </mxCell>
        <mxCell id="EJNOuzRUjkJhy4srBCbP-44" style="edgeStyle=orthogonalEdgeStyle;rounded=0;orthogonalLoop=1;jettySize=auto;html=1;entryX=1;entryY=0.5;entryDx=0;entryDy=0;" parent="1" source="EJNOuzRUjkJhy4srBCbP-24" target="EJNOuzRUjkJhy4srBCbP-26" edge="1">
          <mxGeometry relative="1" as="geometry" />
        </mxCell>
        <mxCell id="EJNOuzRUjkJhy4srBCbP-48" style="edgeStyle=orthogonalEdgeStyle;rounded=0;orthogonalLoop=1;jettySize=auto;html=1;entryX=0;entryY=0.5;entryDx=0;entryDy=0;" parent="1" source="EJNOuzRUjkJhy4srBCbP-24" target="EJNOuzRUjkJhy4srBCbP-47" edge="1">
          <mxGeometry relative="1" as="geometry" />
        </mxCell>
        <mxCell id="EJNOuzRUjkJhy4srBCbP-24" value="&lt;font style=&quot;font-size: 24px;&quot;&gt;&lt;b style=&quot;&quot;&gt;Структура программы С#&lt;/b&gt;&lt;/font&gt;" style="rounded=0;whiteSpace=wrap;html=1;" parent="1" vertex="1">
          <mxGeometry x="1000" y="-520" width="480" height="200" as="geometry" />
        </mxCell>
        <mxCell id="EJNOuzRUjkJhy4srBCbP-26" value="&lt;blockquote style=&quot;margin: 0 0 0 40px; border: none; padding: 0px;&quot;&gt;&lt;div&gt;&lt;font style=&quot;font-size: 18px;&quot;&gt;&lt;b style=&quot;&quot;&gt;.cs-файлы&lt;/b&gt;&lt;/font&gt;&lt;/div&gt;&lt;div&gt;&lt;font style=&quot;font-size: 16px;&quot;&gt;&lt;br&gt;&lt;/font&gt;&lt;/div&gt;&lt;font style=&quot;font-size: 16px;&quot;&gt;1) Весь C# код программы помещается в файлы с расширением .cs&lt;/font&gt;&lt;div&gt;&lt;font style=&quot;font-size: 24px;&quot;&gt;&lt;br&gt;&lt;/font&gt;&lt;/div&gt;&lt;div&gt;&lt;font style=&quot;font-size: 16px;&quot;&gt;2) Строительные блоки в программе - это инструкции.&lt;/font&gt;&lt;/div&gt;&lt;div&gt;&lt;font size=&quot;3&quot; style=&quot;&quot;&gt;&lt;br&gt;&lt;/font&gt;&lt;/div&gt;&lt;div&gt;&lt;font size=&quot;3&quot;&gt;&lt;b&gt;Инструкция&lt;/b&gt; -&amp;nbsp;&lt;span style=&quot;background-color: rgb(247, 247, 250); color: light-dark(rgb(0, 0, 0), rgb(255, 255, 255));&quot;&gt;арифметическую операцию, вызов метода, объявление переменной и присвоение ей значения.&lt;/span&gt;&lt;span style=&quot;background-color: transparent; color: light-dark(rgb(0, 0, 0), rgb(255, 255, 255));&quot;&gt;&amp;nbsp;&lt;/span&gt;&lt;/font&gt;&lt;/div&gt;&lt;div&gt;&lt;font size=&quot;3&quot;&gt;&lt;span style=&quot;background-color: transparent; color: light-dark(rgb(0, 0, 0), rgb(255, 255, 255));&quot;&gt;&lt;br&gt;&lt;/span&gt;&lt;/font&gt;&lt;/div&gt;&lt;div&gt;&lt;font size=&quot;3&quot;&gt;&lt;span style=&quot;background-color: transparent; color: light-dark(rgb(0, 0, 0), rgb(255, 255, 255));&quot;&gt;3) После каждой выполненной инструкции, ставиться точка с запятой - знак компилятору о конце инструкции&lt;/span&gt;&lt;/font&gt;&lt;/div&gt;&lt;div&gt;&lt;font size=&quot;3&quot;&gt;&lt;span style=&quot;background-color: transparent; color: light-dark(rgb(0, 0, 0), rgb(255, 255, 255));&quot;&gt;&lt;br&gt;&lt;/span&gt;&lt;/font&gt;&lt;/div&gt;&lt;div&gt;&lt;font size=&quot;3&quot;&gt;&lt;span style=&quot;background-color: transparent; color: light-dark(rgb(0, 0, 0), rgb(255, 255, 255));&quot;&gt;4) Набор инструкций объединяется в фигурные скобки - блок кода&lt;/span&gt;&lt;/font&gt;&lt;/div&gt;&lt;div&gt;&lt;font size=&quot;3&quot;&gt;&lt;span style=&quot;background-color: transparent; color: light-dark(rgb(0, 0, 0), rgb(255, 255, 255));&quot;&gt;4.1) Так же блоки кода могут иметь вложенность других блоков кода&lt;/span&gt;&lt;/font&gt;&lt;/div&gt;&lt;div&gt;&lt;font size=&quot;3&quot;&gt;&lt;span style=&quot;background-color: transparent; color: light-dark(rgb(0, 0, 0), rgb(255, 255, 255));&quot;&gt;&lt;br&gt;&lt;/span&gt;&lt;/font&gt;&lt;/div&gt;&lt;font style=&quot;font-size: 18px;&quot;&gt;&lt;b&gt;.cs-файлы регистрозависимые&lt;/b&gt;&lt;/font&gt;&lt;div&gt;&lt;br&gt;&lt;/div&gt;&lt;div&gt;&lt;span style=&quot;color: light-dark(rgb(0, 0, 0), rgb(255, 255, 255)); font-size: 16px; background-color: rgb(247, 247, 250);&quot;&gt;C# является регистрозависимым языком. Это значит, что в зависимости от регистра символов какие-то определенные названия могут представлять разные классы, методы, переменные и т.д. Например, для вывода на консоль используется метод&amp;nbsp;&lt;/span&gt;&lt;span style=&quot;color: light-dark(rgb(0, 0, 0), rgb(255, 255, 255)); font-weight: bold; font-size: 16px; background-color: rgb(247, 247, 250);&quot; class=&quot;b&quot;&gt;WriteLine&lt;/span&gt;&lt;span style=&quot;color: light-dark(rgb(0, 0, 0), rgb(255, 255, 255)); font-size: 16px; background-color: rgb(247, 247, 250);&quot;&gt;&amp;nbsp;- его имя начинается именно с большой буквы: &quot;WriteLine&quot;. Если мы вместо &quot;Console.WriteLine&quot; напишем &quot;Console.writeline&quot;, то программа не скомпилируется, так как данный метод обязательно должен называться &quot;WriteLine&quot;, а не &quot;writeline&quot; или &quot;WRITELINE&quot; или как-то иначе.&lt;/span&gt;&lt;font size=&quot;3&quot;&gt;&lt;span style=&quot;background-color: transparent; color: light-dark(rgb(0, 0, 0), rgb(255, 255, 255));&quot;&gt;&amp;nbsp;&lt;/span&gt;&lt;/font&gt;&lt;/div&gt;&lt;div&gt;&lt;font size=&quot;3&quot;&gt;&lt;span style=&quot;background-color: transparent; color: light-dark(rgb(0, 0, 0), rgb(255, 255, 255));&quot;&gt;&lt;br&gt;&lt;/span&gt;&lt;/font&gt;&lt;/div&gt;&lt;div&gt;&lt;b style=&quot;font-size: 18px;&quot;&gt;Комментарии в коде&lt;/b&gt;&lt;/div&gt;&lt;div&gt;&lt;b style=&quot;font-size: 18px;&quot;&gt;&lt;br&gt;&lt;/b&gt;&lt;/div&gt;&lt;div&gt;&lt;span style=&quot;font-size: 16px; background-color: rgb(247, 247, 250);&quot;&gt;&lt;font face=&quot;Helvetica&quot;&gt;Однострочный комментарий размещается на одной строке после двойного слеша //. А многострочный комментарий заключается между символами /* текст комментария */.&lt;/font&gt;&lt;/span&gt;&lt;/div&gt;&lt;div&gt;&lt;span style=&quot;font-size: 16px; background-color: rgb(247, 247, 250);&quot;&gt;&lt;font face=&quot;Helvetica&quot;&gt;Компилятор комментарии не видит!!!&lt;/font&gt;&lt;/span&gt;&lt;/div&gt;&lt;/blockquote&gt;" style="rounded=0;whiteSpace=wrap;html=1;align=left;" parent="1" vertex="1">
          <mxGeometry x="400" y="-520" width="520" height="720" as="geometry" />
        </mxCell>
        <mxCell id="EJNOuzRUjkJhy4srBCbP-47" value="&lt;blockquote style=&quot;margin: 0 0 0 40px; border: none; padding: 0px;&quot;&gt;&lt;div style=&quot;text-align: left;&quot;&gt;&lt;b style=&quot;background-color: transparent; color: light-dark(rgb(0, 0, 0), rgb(255, 255, 255));&quot;&gt;&lt;font style=&quot;font-size: 18px;&quot;&gt;Конфигурационный файл проекта .csproj&lt;/font&gt;&lt;/b&gt;&lt;/div&gt;&lt;div style=&quot;text-align: left;&quot;&gt;&lt;b&gt;&lt;font style=&quot;font-size: 18px;&quot;&gt;&lt;br&gt;&lt;/font&gt;&lt;/b&gt;&lt;/div&gt;&lt;div style=&quot;text-align: left;&quot;&gt;&lt;font style=&quot;font-size: 16px;&quot;&gt;Название_проекта.csproj&lt;/font&gt;&lt;/div&gt;&lt;div style=&quot;text-align: left;&quot;&gt;&lt;font face=&quot;Helvetica&quot; style=&quot;font-size: 16px;&quot;&gt;&lt;span style=&quot;background-color: rgb(247, 247, 250);&quot;&gt;Этот файл в виде кода xml определяет конфгурацию проекта и он может содержать множество элементов.&lt;/span&gt;&lt;/font&gt;&lt;/div&gt;&lt;div style=&quot;text-align: left;&quot;&gt;&lt;font face=&quot;Helvetica&quot; style=&quot;font-size: 16px;&quot;&gt;&lt;span style=&quot;background-color: rgb(247, 247, 250);&quot;&gt;&lt;br&gt;&lt;/span&gt;&lt;/font&gt;&lt;/div&gt;&lt;div&gt;&lt;div style=&quot;text-align: left;&quot;&gt;&lt;span style=&quot;font-size: 16px; background-color: light-dark(#ffffff, var(--ge-dark-color, #121212));&quot;&gt;&lt;font style=&quot;color: rgb(0, 0, 0);&quot;&gt;Определения типа проекта и целевой платформы.&lt;/font&gt;&lt;/span&gt;&lt;/div&gt;&lt;/div&gt;&lt;div&gt;&lt;font face=&quot;Helvetica&quot; style=&quot;font-size: 16px; color: rgb(0, 0, 0);&quot;&gt;&lt;div style=&quot;text-align: left;&quot;&gt;&lt;span style=&quot;background-color: light-dark(#ffffff, var(--ge-dark-color, #121212));&quot;&gt;Управления зависимостями (NuGet, другие проекты).&lt;/span&gt;&lt;/div&gt;&lt;/font&gt;&lt;/div&gt;&lt;div&gt;&lt;font face=&quot;Helvetica&quot; style=&quot;font-size: 16px; color: rgb(0, 0, 0);&quot;&gt;&lt;span&gt;&lt;div style=&quot;text-align: left;&quot;&gt;&lt;span style=&quot;background-color: light-dark(#ffffff, var(--ge-dark-color, #121212));&quot;&gt;Настройки процесса сборки и публикации.&lt;/span&gt;&lt;/div&gt;&lt;/span&gt;&lt;/font&gt;&lt;/div&gt;&lt;div&gt;&lt;font face=&quot;Helvetica&quot; style=&quot;font-size: 16px; color: rgb(0, 0, 0);&quot;&gt;&lt;span&gt;&lt;div style=&quot;text-align: left;&quot;&gt;&lt;span style=&quot;background-color: light-dark(#ffffff, var(--ge-dark-color, #121212));&quot;&gt;Интеграции с MSBuild для кастомных задач.&lt;/span&gt;&lt;/div&gt;&lt;/span&gt;&lt;/font&gt;&lt;/div&gt;&lt;/blockquote&gt;" style="rounded=0;whiteSpace=wrap;html=1;" parent="1" vertex="1">
          <mxGeometry x="1560" y="-520" width="560" height="360" as="geometry" />
        </mxCell>
        <mxCell id="EJNOuzRUjkJhy4srBCbP-50" value="" style="line;strokeWidth=4;html=1;perimeter=backbonePerimeter;points=[];outlineConnect=0;" parent="1" vertex="1">
          <mxGeometry x="280" y="-610" width="1960" height="20" as="geometry" />
        </mxCell>
        <mxCell id="EJNOuzRUjkJhy4srBCbP-51" value="" style="line;strokeWidth=4;html=1;perimeter=backbonePerimeter;points=[];outlineConnect=0;" parent="1" vertex="1">
          <mxGeometry x="280" y="260" width="1960" height="20" as="geometry" />
        </mxCell>
        <mxCell id="EJNOuzRUjkJhy4srBCbP-53" value="" style="line;strokeWidth=4;html=1;perimeter=backbonePerimeter;points=[];outlineConnect=0;" parent="1" vertex="1">
          <mxGeometry x="280" y="-2090" width="1960" height="20" as="geometry" />
        </mxCell>
        <mxCell id="EJNOuzRUjkJhy4srBCbP-56" value="" style="line;strokeWidth=4;direction=south;html=1;perimeter=backbonePerimeter;points=[];outlineConnect=0;" parent="1" vertex="1">
          <mxGeometry x="270" y="-2080" width="10" height="1480" as="geometry" />
        </mxCell>
        <mxCell id="EJNOuzRUjkJhy4srBCbP-57" value="" style="line;strokeWidth=4;direction=south;html=1;perimeter=backbonePerimeter;points=[];outlineConnect=0;" parent="1" vertex="1">
          <mxGeometry x="2240" y="-2080" width="10" height="1480" as="geometry" />
        </mxCell>
        <mxCell id="EJNOuzRUjkJhy4srBCbP-58" value="" style="line;strokeWidth=4;direction=south;html=1;perimeter=backbonePerimeter;points=[];outlineConnect=0;" parent="1" vertex="1">
          <mxGeometry x="270" y="-600" width="10" height="870" as="geometry" />
        </mxCell>
        <mxCell id="EJNOuzRUjkJhy4srBCbP-59" value="" style="line;strokeWidth=4;direction=south;html=1;perimeter=backbonePerimeter;points=[];outlineConnect=0;" parent="1" vertex="1">
          <mxGeometry x="2240" y="-600" width="10" height="870" as="geometry" />
        </mxCell>
        <mxCell id="vX-Lv5TuLdrhU9jm_q0--6" value="&lt;span style=&quot;font-size: 48px;&quot;&gt;Теория языка C#, .NET платформы&lt;/span&gt;" style="text;strokeColor=none;fillColor=none;html=1;fontSize=24;fontStyle=1;verticalAlign=middle;align=center;" parent="1" vertex="1">
          <mxGeometry x="1210" y="-2010" width="100" height="40" as="geometry" />
        </mxCell>
        <mxCell id="vX-Lv5TuLdrhU9jm_q0--7" value="" style="line;strokeWidth=4;html=1;perimeter=backbonePerimeter;points=[];outlineConnect=0;" parent="1" vertex="1">
          <mxGeometry x="280" y="-1900" width="1960" height="20" as="geometry" />
        </mxCell>
        <mxCell id="4t-1hhCyYwhDDtixqiCs-8" style="edgeStyle=orthogonalEdgeStyle;rounded=0;orthogonalLoop=1;jettySize=auto;html=1;exitX=0.5;exitY=1;exitDx=0;exitDy=0;entryX=0.5;entryY=0;entryDx=0;entryDy=0;" parent="1" source="4t-1hhCyYwhDDtixqiCs-6" target="4t-1hhCyYwhDDtixqiCs-7" edge="1">
          <mxGeometry relative="1" as="geometry" />
        </mxCell>
        <mxCell id="4t-1hhCyYwhDDtixqiCs-6" value="&lt;div&gt;&lt;span style=&quot;font-size: 24px;&quot;&gt;&lt;b&gt;Уровни абстракции в программировании&lt;/b&gt;&lt;/span&gt;&lt;/div&gt;" style="rounded=0;whiteSpace=wrap;html=1;" parent="1" vertex="1">
          <mxGeometry x="990" y="360" width="480" height="235" as="geometry" />
        </mxCell>
        <mxCell id="4t-1hhCyYwhDDtixqiCs-7" value="&lt;h3 style=&quot;font-weight: var(--ds-font-weight-strong); line-height: 1.5; margin: calc(var(--ds-md-zoom)*16px)0 calc(var(--ds-md-zoom)*12px)0; text-align: start;&quot;&gt;&lt;strong style=&quot;&quot;&gt;&lt;font face=&quot;Helvetica&quot; style=&quot;color: rgb(0, 0, 0); background-color: light-dark(#ffffff, var(--ge-dark-color, #121212)); font-size: 18px;&quot;&gt;1. Уровни абстракции (от низкого к высокому)&lt;/font&gt;&lt;/strong&gt;&lt;/h3&gt;&lt;div&gt;&lt;strong style=&quot;&quot;&gt;&lt;font face=&quot;Helvetica&quot; style=&quot;color: rgb(0, 0, 0); background-color: light-dark(#ffffff, var(--ge-dark-color, #121212)); font-size: 16px;&quot;&gt;&lt;br&gt;&lt;/font&gt;&lt;/strong&gt;&lt;/div&gt;&lt;h4 style=&quot;font-weight: var(--ds-font-weight-strong); line-height: var(--ds-md-line-height); margin: calc(var(--ds-md-zoom)*16px)0 calc(var(--ds-md-zoom)*12px)0; text-align: start;&quot;&gt;&lt;strong&gt;&lt;font face=&quot;Helvetica&quot; style=&quot;color: rgb(0, 0, 0); background-color: light-dark(#ffffff, var(--ge-dark-color, #121212)); font-size: 16px;&quot;&gt;🔹 1. Основы C# (базовый уровень)&lt;/font&gt;&lt;/strong&gt;&lt;/h4&gt;&lt;p style=&quot;margin: calc(var(--ds-md-zoom)*12px)0; line-height: var(--ds-md-line-height); text-align: start;&quot;&gt;&lt;font face=&quot;Helvetica&quot; style=&quot;color: rgb(0, 0, 0); background-color: light-dark(#ffffff, var(--ge-dark-color, #121212)); font-size: 16px;&quot;&gt;—&amp;nbsp;&lt;strong&gt;Что это&lt;/strong&gt;: Синтаксис, операторы (&lt;code style=&quot;font-weight: var(--ds-font-weight-strong); border-radius: 4px; padding: 0.15rem 0.3rem;&quot;&gt;if&lt;/code&gt;,&amp;nbsp;&lt;code style=&quot;font-weight: var(--ds-font-weight-strong); border-radius: 4px; padding: 0.15rem 0.3rem;&quot;&gt;for&lt;/code&gt;), методы, типы данных.&lt;br&gt;—&amp;nbsp;&lt;strong&gt;Зачем&lt;/strong&gt;: Реализация конкретной логики (например, расчёт суммы или фильтрация списка).&lt;br&gt;&lt;br&gt;&lt;/font&gt;&lt;/p&gt;&lt;p style=&quot;margin: calc(var(--ds-md-zoom)*12px)0; line-height: var(--ds-md-line-height); text-align: start;&quot;&gt;&lt;font face=&quot;Helvetica&quot; style=&quot;color: rgb(0, 0, 0); background-color: light-dark(#ffffff, var(--ge-dark-color, #121212)); font-size: 16px;&quot;&gt;&lt;br&gt;&lt;/font&gt;&lt;/p&gt;&lt;h4 style=&quot;font-weight: var(--ds-font-weight-strong); line-height: var(--ds-md-line-height); margin: calc(var(--ds-md-zoom)*16px)0 calc(var(--ds-md-zoom)*12px)0; text-align: start;&quot;&gt;&lt;strong&gt;&lt;font face=&quot;Helvetica&quot; style=&quot;color: rgb(0, 0, 0); background-color: light-dark(#ffffff, var(--ge-dark-color, #121212)); font-size: 16px;&quot;&gt;🔹 2. ООП (организация кода)&lt;/font&gt;&lt;/strong&gt;&lt;/h4&gt;&lt;p style=&quot;margin: calc(var(--ds-md-zoom)*12px)0; line-height: var(--ds-md-line-height); text-align: start;&quot;&gt;&lt;font face=&quot;Helvetica&quot; style=&quot;color: rgb(0, 0, 0); background-color: light-dark(#ffffff, var(--ge-dark-color, #121212)); font-size: 16px;&quot;&gt;—&amp;nbsp;&lt;strong&gt;Что это&lt;/strong&gt;: Классы, объекты, наследование, полиморфизм, инкапсуляция.&lt;br&gt;—&amp;nbsp;&lt;strong&gt;Зачем&lt;/strong&gt;: Создание связей между сущностями (например,&amp;nbsp;&lt;code style=&quot;font-weight: var(--ds-font-weight-strong); border-radius: 4px; padding: 0.15rem 0.3rem;&quot;&gt;User&lt;/code&gt;&amp;nbsp;и&amp;nbsp;&lt;code style=&quot;font-weight: var(--ds-font-weight-strong); border-radius: 4px; padding: 0.15rem 0.3rem;&quot;&gt;Order&lt;/code&gt;).&lt;br&gt;&lt;br&gt;&lt;/font&gt;&lt;/p&gt;&lt;p style=&quot;margin: calc(var(--ds-md-zoom)*12px)0; line-height: var(--ds-md-line-height); text-align: start;&quot;&gt;&lt;font face=&quot;Helvetica&quot; style=&quot;color: rgb(0, 0, 0); background-color: light-dark(#ffffff, var(--ge-dark-color, #121212)); font-size: 16px;&quot;&gt;&lt;br&gt;&lt;/font&gt;&lt;/p&gt;&lt;h4 style=&quot;font-weight: var(--ds-font-weight-strong); line-height: var(--ds-md-line-height); margin: calc(var(--ds-md-zoom)*16px)0 calc(var(--ds-md-zoom)*12px)0; text-align: start;&quot;&gt;&lt;strong&gt;&lt;font face=&quot;Helvetica&quot; style=&quot;color: rgb(0, 0, 0); background-color: light-dark(#ffffff, var(--ge-dark-color, #121212)); font-size: 16px;&quot;&gt;🔹 3. Архитектурные паттерны (управление сложностью)&lt;/font&gt;&lt;/strong&gt;&lt;/h4&gt;&lt;p style=&quot;margin: calc(var(--ds-md-zoom)*12px)0; line-height: var(--ds-md-line-height); text-align: start;&quot;&gt;&lt;font face=&quot;Helvetica&quot; style=&quot;color: rgb(0, 0, 0); background-color: light-dark(#ffffff, var(--ge-dark-color, #121212)); font-size: 16px;&quot;&gt;—&amp;nbsp;&lt;strong&gt;Что это&lt;/strong&gt;:&lt;/font&gt;&lt;/p&gt;&lt;ul style=&quot;margin: calc(var(--ds-md-zoom)*12px)0; padding-left: calc(var(--ds-md-zoom)*24px); text-align: start;&quot;&gt;&lt;li&gt;&lt;p style=&quot;margin-top: 0px; margin-right: 0px; margin-left: 0px; line-height: var(--ds-md-line-height); margin-bottom: 0px !important;&quot;&gt;&lt;font face=&quot;Helvetica&quot; style=&quot;color: rgb(0, 0, 0); background-color: light-dark(#ffffff, var(--ge-dark-color, #121212)); font-size: 16px;&quot;&gt;&lt;strong&gt;MVC&lt;/strong&gt;&amp;nbsp;(Model-View-Controller)&lt;/font&gt;&lt;/p&gt;&lt;/li&gt;&lt;li style=&quot;margin-top: 4px;&quot;&gt;&lt;p style=&quot;margin-top: 0px; margin-right: 0px; margin-left: 0px; line-height: var(--ds-md-line-height); margin-bottom: 0px !important;&quot;&gt;&lt;strong&gt;&lt;font face=&quot;Helvetica&quot; style=&quot;color: rgb(0, 0, 0); background-color: light-dark(#ffffff, var(--ge-dark-color, #121212)); font-size: 16px;&quot;&gt;Clean Architecture&lt;/font&gt;&lt;/strong&gt;&lt;/p&gt;&lt;/li&gt;&lt;li style=&quot;margin-top: 4px;&quot;&gt;&lt;p style=&quot;margin-top: 0px; margin-right: 0px; margin-left: 0px; line-height: var(--ds-md-line-height); margin-bottom: 0px !important;&quot;&gt;&lt;font face=&quot;Helvetica&quot; style=&quot;color: rgb(0, 0, 0); background-color: light-dark(#ffffff, var(--ge-dark-color, #121212)); font-size: 16px;&quot;&gt;&lt;strong&gt;DDD&lt;/strong&gt;&amp;nbsp;(Domain-Driven Design)&lt;br&gt;—&amp;nbsp;&lt;strong&gt;Зачем&lt;/strong&gt;: Разделение ответственности (например, отделение логики от интерфейса).&lt;br&gt;—&amp;nbsp;&lt;strong&gt;Пример&lt;/strong&gt;:&lt;/font&gt;&lt;/p&gt;&lt;/li&gt;&lt;/ul&gt;&lt;span style=&quot;font-size: 16px;&quot;&gt;&lt;br&gt;&lt;/span&gt;&lt;div style=&quot;--ds-md-code-block-font-size: calc(var(--ds-md-zoom)*var(--ds-font-size-xsp)); border-radius: calc(var(--ds-md-zoom)*10px); line-height: calc(var(--ds-md-code-block-font-size)*1.6); background-image: initial; background-position: initial; background-size: initial; background-repeat: initial; background-attachment: initial; background-origin: initial; background-clip: initial; margin-bottom: calc(var(--ds-md-zoom)*10px); text-align: start;&quot; class=&quot;md-code-block&quot;&gt;&lt;div style=&quot;position: sticky; top: 0px;&quot; class=&quot;md-code-block-banner-wrap&quot;&gt;&lt;div style=&quot;padding: calc(var(--ds-md-zoom)*8px)calc(var(--ds-md-zoom)*12px); line-height: var(--ds-md-code-block-font-size); border-top-left-radius: calc(var(--ds-md-zoom)*10px); border-top-right-radius: calc(var(--ds-md-zoom)*10px); background-image: initial; background-position: initial; background-size: initial; background-repeat: initial; background-attachment: initial; background-origin: initial; background-clip: initial; justify-content: space-between; display: flex;&quot; class=&quot;md-code-block-banner&quot;&gt;&lt;div class=&quot;md-code-block-infostring&quot;&gt;&lt;font face=&quot;Helvetica&quot; style=&quot;color: rgb(0, 0, 0); background-color: light-dark(#ffffff, var(--ge-dark-color, #121212)); font-size: 16px;&quot;&gt;plaintext&lt;/font&gt;&lt;/div&gt;&lt;div style=&quot;align-items: center; display: flex;&quot; class=&quot;md-code-block-action&quot;&gt;&lt;div style=&quot;cursor: pointer; border: none; margin: 0px; padding: 0px;&quot; class=&quot;ds-markdown-code-copy-button&quot;&gt;&lt;br&gt;&lt;/div&gt;&lt;/div&gt;&lt;/div&gt;&lt;/div&gt;&lt;pre style=&quot;overflow: auto; padding: calc(var(--ds-md-zoom)*8px)calc(var(--ds-md-zoom)*12px); text-wrap-mode: wrap; word-break: break-all; margin-top: 0px !important; margin-bottom: 0px !important;&quot;&gt;&lt;font face=&quot;Helvetica&quot; style=&quot;color: rgb(0, 0, 0); background-color: light-dark(#ffffff, var(--ge-dark-color, #121212)); font-size: 16px;&quot;&gt;Приложение → &lt;br&gt;  ├── Presentation (UI) &lt;br&gt;  ├── Business Logic (Services)&lt;br&gt;  └── Data Access (Database)&lt;/font&gt;&lt;/pre&gt;&lt;pre style=&quot;overflow: auto; padding: calc(var(--ds-md-zoom)*8px)calc(var(--ds-md-zoom)*12px); text-wrap-mode: wrap; word-break: break-all; margin-top: 0px !important; margin-bottom: 0px !important;&quot;&gt;&lt;font face=&quot;Helvetica&quot; style=&quot;color: rgb(0, 0, 0); background-color: light-dark(#ffffff, var(--ge-dark-color, #121212)); font-size: 16px;&quot;&gt;&lt;br&gt;&lt;/font&gt;&lt;/pre&gt;&lt;pre style=&quot;overflow: auto; padding: calc(var(--ds-md-zoom)*8px)calc(var(--ds-md-zoom)*12px); text-wrap-mode: wrap; word-break: break-all; margin-top: 0px !important; margin-bottom: 0px !important;&quot;&gt;&lt;font face=&quot;Helvetica&quot; style=&quot;color: rgb(0, 0, 0); background-color: light-dark(#ffffff, var(--ge-dark-color, #121212)); font-size: 16px;&quot;&gt;&lt;br&gt;&lt;/font&gt;&lt;/pre&gt;&lt;/div&gt;&lt;h4 style=&quot;font-weight: var(--ds-font-weight-strong); line-height: var(--ds-md-line-height); margin: calc(var(--ds-md-zoom)*16px)0 calc(var(--ds-md-zoom)*12px)0; text-align: start;&quot;&gt;&lt;strong&gt;&lt;font face=&quot;Helvetica&quot; style=&quot;color: rgb(0, 0, 0); background-color: light-dark(#ffffff, var(--ge-dark-color, #121212)); font-size: 16px;&quot;&gt;🔹 4. Системный дизайн (масштабирование)&lt;/font&gt;&lt;/strong&gt;&lt;/h4&gt;&lt;p style=&quot;margin: calc(var(--ds-md-zoom)*12px)0; line-height: var(--ds-md-line-height); text-align: start;&quot;&gt;&lt;font face=&quot;Helvetica&quot; style=&quot;color: rgb(0, 0, 0); background-color: light-dark(#ffffff, var(--ge-dark-color, #121212)); font-size: 16px;&quot;&gt;—&amp;nbsp;&lt;strong&gt;Что это&lt;/strong&gt;:&lt;/font&gt;&lt;/p&gt;&lt;ul style=&quot;margin: calc(var(--ds-md-zoom)*12px)0; padding-left: calc(var(--ds-md-zoom)*24px); text-align: start;&quot;&gt;&lt;li&gt;&lt;p style=&quot;margin-top: 0px; margin-right: 0px; margin-left: 0px; line-height: var(--ds-md-line-height); margin-bottom: 0px !important;&quot;&gt;&lt;font face=&quot;Helvetica&quot; style=&quot;color: rgb(0, 0, 0); background-color: light-dark(#ffffff, var(--ge-dark-color, #121212)); font-size: 16px;&quot;&gt;Микросервисы vs Монолит&lt;/font&gt;&lt;/p&gt;&lt;/li&gt;&lt;li style=&quot;margin-top: 4px;&quot;&gt;&lt;p style=&quot;margin-top: 0px; margin-right: 0px; margin-left: 0px; line-height: var(--ds-md-line-height); margin-bottom: 0px !important;&quot;&gt;&lt;font face=&quot;Helvetica&quot; style=&quot;color: rgb(0, 0, 0); background-color: light-dark(#ffffff, var(--ge-dark-color, #121212)); font-size: 16px;&quot;&gt;Кеширование (Redis)&lt;/font&gt;&lt;/p&gt;&lt;/li&gt;&lt;li style=&quot;margin-top: 4px;&quot;&gt;&lt;p style=&quot;margin-top: 0px; margin-right: 0px; margin-left: 0px; line-height: var(--ds-md-line-height); margin-bottom: 0px !important;&quot;&gt;&lt;font face=&quot;Helvetica&quot; style=&quot;color: rgb(0, 0, 0); background-color: light-dark(#ffffff, var(--ge-dark-color, #121212)); font-size: 16px;&quot;&gt;Очереди (Kafka, RabbitMQ)&lt;br&gt;—&amp;nbsp;&lt;strong&gt;Зачем&lt;/strong&gt;: Как приложение работает в «продакшене» (например, обработка 1M запросов в день).&lt;/font&gt;&lt;/p&gt;&lt;/li&gt;&lt;/ul&gt;&lt;div style=&quot;text-align: left;&quot;&gt;&lt;span style=&quot;font-size: 16px;&quot;&gt;&lt;br&gt;&lt;/span&gt;&lt;/div&gt;&lt;div style=&quot;text-align: left;&quot;&gt;&lt;span style=&quot;font-size: 16px;&quot;&gt;&lt;br&gt;&lt;/span&gt;&lt;/div&gt;&lt;h4 style=&quot;font-weight: var(--ds-font-weight-strong); line-height: var(--ds-md-line-height); margin: calc(var(--ds-md-zoom)*16px)0 calc(var(--ds-md-zoom)*12px)0; text-align: start;&quot;&gt;&lt;strong&gt;&lt;font face=&quot;Helvetica&quot; style=&quot;color: rgb(0, 0, 0); background-color: light-dark(#ffffff, var(--ge-dark-color, #121212)); font-size: 16px;&quot;&gt;🔹 5. Методологии разработки (процессы)&lt;/font&gt;&lt;/strong&gt;&lt;/h4&gt;&lt;p style=&quot;margin: calc(var(--ds-md-zoom)*12px)0; line-height: var(--ds-md-line-height); text-align: start;&quot;&gt;&lt;font face=&quot;Helvetica&quot; style=&quot;color: rgb(0, 0, 0); background-color: light-dark(#ffffff, var(--ge-dark-color, #121212)); font-size: 16px;&quot;&gt;—&amp;nbsp;&lt;strong&gt;Что это&lt;/strong&gt;:&lt;/font&gt;&lt;/p&gt;&lt;ul style=&quot;margin: calc(var(--ds-md-zoom)*12px)0; padding-left: calc(var(--ds-md-zoom)*24px); text-align: start;&quot;&gt;&lt;li&gt;&lt;p style=&quot;margin-top: 0px; margin-right: 0px; margin-left: 0px; line-height: var(--ds-md-line-height); margin-bottom: 0px !important;&quot;&gt;&lt;font face=&quot;Helvetica&quot; style=&quot;color: rgb(0, 0, 0); background-color: light-dark(#ffffff, var(--ge-dark-color, #121212)); font-size: 16px;&quot;&gt;Agile/Scrum&lt;/font&gt;&lt;/p&gt;&lt;/li&gt;&lt;li style=&quot;margin-top: 4px;&quot;&gt;&lt;p style=&quot;margin-top: 0px; margin-right: 0px; margin-left: 0px; line-height: var(--ds-md-line-height); margin-bottom: 0px !important;&quot;&gt;&lt;font face=&quot;Helvetica&quot; style=&quot;color: rgb(0, 0, 0); background-color: light-dark(#ffffff, var(--ge-dark-color, #121212)); font-size: 16px;&quot;&gt;CI/CD (автоматизация сборки и деплоя)&lt;br&gt;—&amp;nbsp;&lt;strong&gt;Зачем&lt;/strong&gt;: Координация команды и быстрая доставка фич.&lt;/font&gt;&lt;/p&gt;&lt;/li&gt;&lt;/ul&gt;&lt;div style=&quot;text-align: left;&quot;&gt;&lt;span style=&quot;font-size: 16px;&quot;&gt;&lt;br&gt;&lt;/span&gt;&lt;/div&gt;&lt;div style=&quot;text-align: left;&quot;&gt;&lt;span style=&quot;font-size: 16px;&quot;&gt;&lt;br&gt;&lt;/span&gt;&lt;/div&gt;&lt;hr style=&quot;height: 1px; margin: calc(var(--ds-md-zoom)*12px)0; background-image: ; background-position-x: ; background-position-y: ; background-size: ; background-repeat: ; background-attachment: ; background-origin: ; background-clip: ; border: none; text-align: start;&quot;&gt;&lt;h3 style=&quot;font-weight: var(--ds-font-weight-strong); line-height: 1.5; margin: calc(var(--ds-md-zoom)*16px)0 calc(var(--ds-md-zoom)*12px)0; text-align: start;&quot;&gt;&lt;strong&gt;&lt;font face=&quot;Helvetica&quot; style=&quot;color: rgb(0, 0, 0); background-color: light-dark(#ffffff, var(--ge-dark-color, #121212)); font-size: 18px;&quot;&gt;2. Как это связано?&lt;/font&gt;&lt;/strong&gt;&lt;/h3&gt;&lt;div&gt;&lt;strong&gt;&lt;font face=&quot;Helvetica&quot; style=&quot;color: rgb(0, 0, 0); background-color: light-dark(#ffffff, var(--ge-dark-color, #121212)); font-size: 16px;&quot;&gt;&lt;br&gt;&lt;/font&gt;&lt;/strong&gt;&lt;/div&gt;&lt;div&gt;&lt;strong&gt;&lt;font face=&quot;Helvetica&quot; style=&quot;color: rgb(0, 0, 0); background-color: light-dark(#ffffff, var(--ge-dark-color, #121212)); font-size: 16px;&quot;&gt;&lt;br&gt;&lt;/font&gt;&lt;/strong&gt;&lt;/div&gt;&lt;p style=&quot;margin: calc(var(--ds-md-zoom)*12px)0; line-height: var(--ds-md-line-height); text-align: start;&quot;&gt;&lt;font face=&quot;Helvetica&quot; style=&quot;color: rgb(0, 0, 0); background-color: light-dark(#ffffff, var(--ge-dark-color, #121212)); font-size: 16px;&quot;&gt;Представь строительство дома:&lt;/font&gt;&lt;/p&gt;&lt;ul style=&quot;margin: calc(var(--ds-md-zoom)*12px)0; padding-left: calc(var(--ds-md-zoom)*24px); text-align: start;&quot;&gt;&lt;li&gt;&lt;p style=&quot;margin-top: 0px; margin-right: 0px; margin-left: 0px; line-height: var(--ds-md-line-height); margin-bottom: 0px !important;&quot;&gt;&lt;font face=&quot;Helvetica&quot; style=&quot;color: rgb(0, 0, 0); background-color: light-dark(#ffffff, var(--ge-dark-color, #121212)); font-size: 16px;&quot;&gt;&lt;strong&gt;Основы C#&lt;/strong&gt;&amp;nbsp;— кирпичи и цемент.&lt;/font&gt;&lt;/p&gt;&lt;/li&gt;&lt;li style=&quot;margin-top: 4px;&quot;&gt;&lt;p style=&quot;margin-top: 0px; margin-right: 0px; margin-left: 0px; line-height: var(--ds-md-line-height); margin-bottom: 0px !important;&quot;&gt;&lt;font face=&quot;Helvetica&quot; style=&quot;color: rgb(0, 0, 0); background-color: light-dark(#ffffff, var(--ge-dark-color, #121212)); font-size: 16px;&quot;&gt;&lt;strong&gt;ООП&lt;/strong&gt;&amp;nbsp;— стены и комнаты (как они связаны).&lt;/font&gt;&lt;/p&gt;&lt;/li&gt;&lt;li style=&quot;margin-top: 4px;&quot;&gt;&lt;p style=&quot;margin-top: 0px; margin-right: 0px; margin-left: 0px; line-height: var(--ds-md-line-height); margin-bottom: 0px !important;&quot;&gt;&lt;font face=&quot;Helvetica&quot; style=&quot;color: rgb(0, 0, 0); background-color: light-dark(#ffffff, var(--ge-dark-color, #121212)); font-size: 16px;&quot;&gt;&lt;strong&gt;Архитектура&lt;/strong&gt;&amp;nbsp;— план этажей (где кухня, а где спальня).&lt;/font&gt;&lt;/p&gt;&lt;/li&gt;&lt;li style=&quot;margin-top: 4px;&quot;&gt;&lt;p style=&quot;margin-top: 0px; margin-right: 0px; margin-left: 0px; line-height: var(--ds-md-line-height); margin-bottom: 0px !important;&quot;&gt;&lt;font face=&quot;Helvetica&quot; style=&quot;color: rgb(0, 0, 0); background-color: light-dark(#ffffff, var(--ge-dark-color, #121212)); font-size: 16px;&quot;&gt;&lt;strong&gt;Системный дизайн&lt;/strong&gt;&amp;nbsp;— инфраструктура (электричество, водопровод).&lt;/font&gt;&lt;/p&gt;&lt;/li&gt;&lt;li style=&quot;margin-top: 4px;&quot;&gt;&lt;p style=&quot;margin-top: 0px; margin-right: 0px; margin-left: 0px; line-height: var(--ds-md-line-height); margin-bottom: 0px !important;&quot;&gt;&lt;font face=&quot;Helvetica&quot; style=&quot;color: rgb(0, 0, 0); background-color: light-dark(#ffffff, var(--ge-dark-color, #121212)); font-size: 16px;&quot;&gt;&lt;strong&gt;Методологии&lt;/strong&gt;&amp;nbsp;— работа строительной бригады.&lt;/font&gt;&lt;/p&gt;&lt;/li&gt;&lt;/ul&gt;&lt;div style=&quot;text-align: left;&quot;&gt;&lt;span style=&quot;font-size: 16px;&quot;&gt;&lt;br&gt;&lt;/span&gt;&lt;/div&gt;&lt;div style=&quot;text-align: left;&quot;&gt;&lt;span style=&quot;font-size: 16px;&quot;&gt;&lt;br&gt;&lt;/span&gt;&lt;/div&gt;&lt;hr style=&quot;height: 1px; margin: calc(var(--ds-md-zoom)*12px)0; background-image: ; background-position-x: ; background-position-y: ; background-size: ; background-repeat: ; background-attachment: ; background-origin: ; background-clip: ; border: none; text-align: start;&quot;&gt;&lt;h3 style=&quot;font-weight: var(--ds-font-weight-strong); line-height: 1.5; margin: calc(var(--ds-md-zoom)*16px)0 calc(var(--ds-md-zoom)*12px)0; text-align: start;&quot;&gt;&lt;strong&gt;&lt;font face=&quot;Helvetica&quot; style=&quot;color: rgb(0, 0, 0); background-color: light-dark(#ffffff, var(--ge-dark-color, #121212)); font-size: 18px;&quot;&gt;3. Пример для приложения «Интернет-магазин»&lt;/font&gt;&lt;/strong&gt;&lt;/h3&gt;&lt;div&gt;&lt;strong&gt;&lt;font face=&quot;Helvetica&quot; style=&quot;color: rgb(0, 0, 0); background-color: light-dark(#ffffff, var(--ge-dark-color, #121212)); font-size: 18px;&quot;&gt;&lt;br&gt;&lt;/font&gt;&lt;/strong&gt;&lt;/div&gt;&lt;p style=&quot;background-color: transparent; color: light-dark(rgb(0, 0, 0), rgb(255, 255, 255)); margin: 0px 0px 4px; line-height: var(--ds-md-line-height); display: inline !important;&quot;&gt;&lt;/p&gt;&lt;div style=&quot;text-align: left;&quot;&gt;&lt;strong style=&quot;font-size: 16px; color: light-dark(rgb(0, 0, 0), rgb(255, 255, 255));&quot;&gt;Основы C#&lt;/strong&gt;&lt;span style=&quot;background-color: light-dark(#ffffff, var(--ge-dark-color, #121212)); font-size: 16px; color: light-dark(rgb(0, 0, 0), rgb(255, 255, 255));&quot;&gt;:&lt;/span&gt;&lt;/div&gt;&lt;p&gt;&lt;/p&gt;&lt;div style=&quot;background: transparent; color: light-dark(rgb(0, 0, 0), rgb(255, 255, 255)); --ds-md-code-block-font-size: calc(var(--ds-md-zoom)*var(--ds-font-size-xsp)); border-radius: calc(var(--ds-md-zoom)*10px); line-height: calc(var(--ds-md-code-block-font-size)*1.6); margin-bottom: 0px;&quot; class=&quot;md-code-block&quot;&gt;&lt;pre style=&quot;text-align: left; overflow: auto; padding: calc(var(--ds-md-zoom)*8px)calc(var(--ds-md-zoom)*12px); text-wrap-mode: wrap; word-break: break-all; margin-top: 0px !important; margin-bottom: 0px !important;&quot;&gt;&lt;font face=&quot;Helvetica&quot; style=&quot;background-color: light-dark(#ffffff, var(--ge-dark-color, #121212)); font-size: 16px; color: rgb(0, 0, 0);&quot;&gt;&lt;span class=&quot;token class-name&quot;&gt;&lt;span class=&quot;token keyword&quot;&gt;decimal&lt;/span&gt;&lt;/span&gt; totalPrice &lt;span class=&quot;token operator&quot;&gt;=&lt;/span&gt; cart&lt;span class=&quot;token punctuation&quot;&gt;.&lt;/span&gt;Items&lt;span class=&quot;token punctuation&quot;&gt;.&lt;/span&gt;&lt;span class=&quot;token function&quot;&gt;Sum&lt;/span&gt;&lt;span class=&quot;token punctuation&quot;&gt;(&lt;/span&gt;item &lt;span class=&quot;token operator&quot;&gt;=&amp;gt;&lt;/span&gt; item&lt;span class=&quot;token punctuation&quot;&gt;.&lt;/span&gt;Price &lt;span class=&quot;token operator&quot;&gt;*&lt;/span&gt; item&lt;span class=&quot;token punctuation&quot;&gt;.&lt;/span&gt;Quantity&lt;span class=&quot;token punctuation&quot;&gt;)&lt;/span&gt;&lt;span class=&quot;token punctuation&quot;&gt;;&lt;/span&gt;&lt;/font&gt;&lt;/pre&gt;&lt;/div&gt;&lt;div style=&quot;text-align: left;&quot;&gt;&lt;span style=&quot;font-size: 16px; white-space-collapse: preserve;&quot;&gt;&lt;br&gt;&lt;/span&gt;&lt;/div&gt;&lt;div style=&quot;text-align: left;&quot;&gt;&lt;span style=&quot;font-size: 16px; white-space-collapse: preserve;&quot;&gt;&lt;br&gt;&lt;/span&gt;&lt;/div&gt;&lt;p style=&quot;background-color: transparent; color: light-dark(rgb(0, 0, 0), rgb(255, 255, 255)); margin: 0px 0px 4px; line-height: var(--ds-md-line-height); display: inline !important;&quot;&gt;&lt;/p&gt;&lt;div style=&quot;text-align: left;&quot;&gt;&lt;strong style=&quot;font-size: 16px; color: light-dark(rgb(0, 0, 0), rgb(255, 255, 255));&quot;&gt;ООП&lt;/strong&gt;&lt;span style=&quot;background-color: light-dark(#ffffff, var(--ge-dark-color, #121212)); font-size: 16px; color: light-dark(rgb(0, 0, 0), rgb(255, 255, 255));&quot;&gt;:&lt;/span&gt;&lt;/div&gt;&lt;p&gt;&lt;/p&gt;&lt;div style=&quot;text-align: start; background: transparent; color: light-dark(rgb(0, 0, 0), rgb(255, 255, 255)); --ds-md-code-block-font-size: calc(var(--ds-md-zoom)*var(--ds-font-size-xsp)); border-radius: calc(var(--ds-md-zoom)*10px); line-height: calc(var(--ds-md-code-block-font-size)*1.6); margin-bottom: 0px;&quot; class=&quot;md-code-block&quot;&gt;&lt;pre style=&quot;overflow: auto; padding: calc(var(--ds-md-zoom)*8px)calc(var(--ds-md-zoom)*12px); text-wrap-mode: wrap; word-break: break-all; margin-top: 0px !important; margin-bottom: 0px !important;&quot;&gt;&lt;font face=&quot;Helvetica&quot; style=&quot;background-color: light-dark(#ffffff, var(--ge-dark-color, #121212)); font-size: 16px; color: rgb(0, 0, 0);&quot;&gt;&lt;span class=&quot;token keyword&quot;&gt;public&lt;/span&gt; &lt;span class=&quot;token keyword&quot;&gt;class&lt;/span&gt; &lt;span class=&quot;token class-name&quot;&gt;Cart&lt;/span&gt; &lt;span class=&quot;token punctuation&quot;&gt;{&lt;/span&gt;&lt;br&gt;    &lt;span class=&quot;token keyword&quot;&gt;public&lt;/span&gt; &lt;span class=&quot;token return-type class-name&quot;&gt;List&lt;span class=&quot;token punctuation&quot;&gt;&amp;lt;&lt;/span&gt;CartItem&lt;span class=&quot;token punctuation&quot;&gt;&amp;gt;&lt;/span&gt;&lt;/span&gt; Items &lt;span class=&quot;token punctuation&quot;&gt;{&lt;/span&gt; &lt;span class=&quot;token keyword&quot;&gt;get&lt;/span&gt;&lt;span class=&quot;token punctuation&quot;&gt;;&lt;/span&gt; &lt;span class=&quot;token punctuation&quot;&gt;}&lt;/span&gt; &lt;span class=&quot;token operator&quot;&gt;=&lt;/span&gt; &lt;span class=&quot;token keyword&quot;&gt;new&lt;/span&gt;&lt;span class=&quot;token punctuation&quot;&gt;(&lt;/span&gt;&lt;span class=&quot;token punctuation&quot;&gt;)&lt;/span&gt;&lt;span class=&quot;token punctuation&quot;&gt;;&lt;/span&gt;&lt;br&gt;    &lt;span class=&quot;token keyword&quot;&gt;public&lt;/span&gt; &lt;span class=&quot;token return-type class-name&quot;&gt;&lt;span class=&quot;token keyword&quot;&gt;decimal&lt;/span&gt;&lt;/span&gt; &lt;span class=&quot;token function&quot;&gt;GetTotalPrice&lt;/span&gt;&lt;span class=&quot;token punctuation&quot;&gt;(&lt;/span&gt;&lt;span class=&quot;token punctuation&quot;&gt;)&lt;/span&gt; &lt;span class=&quot;token operator&quot;&gt;=&amp;gt;&lt;/span&gt; &lt;span class=&quot;token comment&quot;&gt;/*...*/&lt;/span&gt;&lt;span class=&quot;token punctuation&quot;&gt;;&lt;/span&gt;&lt;br&gt;&lt;span class=&quot;token punctuation&quot;&gt;}&lt;/span&gt;&lt;/font&gt;&lt;/pre&gt;&lt;/div&gt;&lt;div style=&quot;text-align: left;&quot;&gt;&lt;span style=&quot;font-size: 16px; white-space-collapse: preserve;&quot;&gt;&lt;br&gt;&lt;/span&gt;&lt;/div&gt;&lt;div style=&quot;text-align: left;&quot;&gt;&lt;span style=&quot;font-size: 16px; white-space-collapse: preserve;&quot;&gt;&lt;br&gt;&lt;/span&gt;&lt;/div&gt;&lt;strong style=&quot;background-color: transparent; color: light-dark(rgb(0, 0, 0), rgb(255, 255, 255)); font-size: 16px;&quot;&gt;&lt;div style=&quot;text-align: left;&quot;&gt;&lt;strong style=&quot;background-color: transparent; color: light-dark(rgb(0, 0, 0), rgb(255, 255, 255));&quot;&gt;Архитектура&lt;/strong&gt;&lt;span style=&quot;color: light-dark(rgb(0, 0, 0), rgb(255, 255, 255)); background-color: light-dark(#ffffff, var(--ge-dark-color, #121212));&quot;&gt;:&lt;/span&gt;&lt;/div&gt;&lt;/strong&gt;&lt;code style=&quot;background-color: transparent; color: light-dark(rgb(0, 0, 0), rgb(255, 255, 255)); font-size: 16px; font-weight: var(--ds-font-weight-strong); border-radius: 4px; padding: 0.15rem 0.3rem;&quot;&gt;&lt;div style=&quot;text-align: left;&quot;&gt;&lt;code style=&quot;background-color: transparent; color: light-dark(rgb(0, 0, 0), rgb(255, 255, 255)); font-weight: var(--ds-font-weight-strong); border-radius: 4px; padding: 0.15rem 0.3rem;&quot;&gt;Controllers/CartController.cs&lt;/code&gt;&lt;span style=&quot;color: light-dark(rgb(0, 0, 0), rgb(255, 255, 255)); font-family: Helvetica; font-weight: bold; background-color: light-dark(#ffffff, var(--ge-dark-color, #121212));&quot;&gt;&amp;nbsp;(HTTP-запросы)&lt;/span&gt;&lt;/div&gt;&lt;/code&gt;&lt;code style=&quot;background-color: transparent; color: light-dark(rgb(0, 0, 0), rgb(255, 255, 255)); font-size: 16px; font-weight: var(--ds-font-weight-strong); border-radius: 4px; padding: 0.15rem 0.3rem;&quot;&gt;&lt;div style=&quot;text-align: left;&quot;&gt;&lt;code style=&quot;background-color: transparent; color: light-dark(rgb(0, 0, 0), rgb(255, 255, 255)); font-weight: var(--ds-font-weight-strong); border-radius: 4px; padding: 0.15rem 0.3rem;&quot;&gt;Services/CartService.cs&lt;/code&gt;&lt;span style=&quot;color: light-dark(rgb(0, 0, 0), rgb(255, 255, 255)); font-family: Helvetica; font-weight: bold; background-color: light-dark(#ffffff, var(--ge-dark-color, #121212));&quot;&gt;&amp;nbsp;(логика корзины)&lt;/span&gt;&lt;/div&gt;&lt;/code&gt;&lt;code style=&quot;background-color: transparent; color: light-dark(rgb(0, 0, 0), rgb(255, 255, 255)); font-size: 16px; font-weight: var(--ds-font-weight-strong); border-radius: 4px; padding: 0.15rem 0.3rem;&quot;&gt;&lt;div style=&quot;text-align: left;&quot;&gt;&lt;code style=&quot;background-color: transparent; color: light-dark(rgb(0, 0, 0), rgb(255, 255, 255)); font-weight: var(--ds-font-weight-strong); border-radius: 4px; padding: 0.15rem 0.3rem;&quot;&gt;Repositories/CartRepository.cs&lt;/code&gt;&lt;span style=&quot;color: light-dark(rgb(0, 0, 0), rgb(255, 255, 255)); font-family: Helvetica; font-weight: bold; background-color: light-dark(#ffffff, var(--ge-dark-color, #121212));&quot;&gt;&amp;nbsp;(работа с БД)&lt;/span&gt;&lt;/div&gt;&lt;div style=&quot;text-align: left;&quot;&gt;&lt;span style=&quot;color: light-dark(rgb(0, 0, 0), rgb(255, 255, 255)); font-family: Helvetica; font-weight: bold; background-color: light-dark(#ffffff, var(--ge-dark-color, #121212));&quot;&gt;&lt;br&gt;&lt;/span&gt;&lt;/div&gt;&lt;/code&gt;&lt;p style=&quot;background-color: transparent; color: light-dark(rgb(0, 0, 0), rgb(255, 255, 255)); font-size: 16px; font-weight: bold; margin: 0px 0px 4px; line-height: var(--ds-md-line-height); display: inline !important;&quot;&gt;&lt;/p&gt;&lt;div style=&quot;text-align: left;&quot;&gt;&lt;strong style=&quot;color: light-dark(rgb(0, 0, 0), rgb(255, 255, 255));&quot;&gt;Системный дизайн&lt;/strong&gt;&lt;span style=&quot;background-color: light-dark(#ffffff, var(--ge-dark-color, #121212)); color: light-dark(rgb(0, 0, 0), rgb(255, 255, 255));&quot;&gt;:&lt;/span&gt;&lt;/div&gt;&lt;div style=&quot;text-align: left;&quot;&gt;&lt;span style=&quot;background-color: light-dark(#ffffff, var(--ge-dark-color, #121212)); color: light-dark(rgb(0, 0, 0), rgb(255, 255, 255));&quot;&gt;&lt;br&gt;&lt;/span&gt;&lt;/div&gt;&lt;p&gt;&lt;/p&gt;&lt;div style=&quot;text-align: left;&quot;&gt;&lt;span style=&quot;color: light-dark(rgb(0, 0, 0), rgb(255, 255, 255)); font-size: 16px; font-weight: bold; background-color: light-dark(#ffffff, var(--ge-dark-color, #121212));&quot;&gt;Кеш корзины в Redis.&lt;/span&gt;&lt;/div&gt;&lt;span style=&quot;background-color: light-dark(#ffffff, var(--ge-dark-color, #121212)); color: light-dark(rgb(0, 0, 0), rgb(255, 255, 255)); font-size: 16px; font-weight: bold;&quot;&gt;&lt;div style=&quot;text-align: left;&quot;&gt;&lt;span style=&quot;background-color: light-dark(#ffffff, var(--ge-dark-color, #121212)); color: light-dark(rgb(0, 0, 0), rgb(255, 255, 255));&quot;&gt;Очередь заказов в RabbitMQ.&lt;/span&gt;&lt;/div&gt;&lt;/span&gt;&lt;strong style=&quot;font-size: 16px; color: light-dark(rgb(0, 0, 0), rgb(255, 255, 255));&quot;&gt;&lt;div style=&quot;text-align: left;&quot;&gt;&lt;strong style=&quot;background-color: transparent; color: light-dark(rgb(0, 0, 0), rgb(255, 255, 255));&quot;&gt;Методологии&lt;/strong&gt;&lt;span style=&quot;color: light-dark(rgb(0, 0, 0), rgb(255, 255, 255)); background-color: light-dark(#ffffff, var(--ge-dark-color, #121212));&quot;&gt;:&lt;/span&gt;&lt;/div&gt;&lt;/strong&gt;&lt;span style=&quot;background-color: light-dark(#ffffff, var(--ge-dark-color, #121212)); color: light-dark(rgb(0, 0, 0), rgb(255, 255, 255)); font-size: 16px; font-weight: bold;&quot;&gt;&lt;div style=&quot;text-align: left;&quot;&gt;&lt;span style=&quot;background-color: light-dark(#ffffff, var(--ge-dark-color, #121212)); color: light-dark(rgb(0, 0, 0), rgb(255, 255, 255));&quot;&gt;Еженедельные релизы через GitHub Actions.&lt;/span&gt;&lt;/div&gt;&lt;div style=&quot;text-align: left;&quot;&gt;&lt;span style=&quot;background-color: light-dark(#ffffff, var(--ge-dark-color, #121212)); color: light-dark(rgb(0, 0, 0), rgb(255, 255, 255));&quot;&gt;&lt;br&gt;&lt;/span&gt;&lt;/div&gt;&lt;div style=&quot;text-align: left;&quot;&gt;&lt;span style=&quot;background-color: light-dark(#ffffff, var(--ge-dark-color, #121212)); color: light-dark(rgb(0, 0, 0), rgb(255, 255, 255));&quot;&gt;&lt;br&gt;&lt;/span&gt;&lt;/div&gt;&lt;/span&gt;&lt;hr style=&quot;text-align: left; background-color: transparent; color: light-dark(rgb(0, 0, 0), rgb(255, 255, 255)); font-size: 16px; font-weight: bold; height: 1px; margin: calc(var(--ds-md-zoom)*12px)0; border: none;&quot;&gt;&lt;strong style=&quot;background-color: transparent; color: light-dark(rgb(0, 0, 0), rgb(255, 255, 255));&quot;&gt;&lt;div style=&quot;text-align: left;&quot;&gt;&lt;strong style=&quot;background-color: transparent; color: light-dark(rgb(0, 0, 0), rgb(255, 255, 255));&quot;&gt;&lt;font face=&quot;Helvetica&quot; style=&quot;background-color: light-dark(#ffffff, var(--ge-dark-color, #121212)); font-size: 18px; color: rgb(0, 0, 0);&quot;&gt;4. Что изучать дальше?&lt;/font&gt;&lt;/strong&gt;&lt;/div&gt;&lt;div style=&quot;text-align: left;&quot;&gt;&lt;strong style=&quot;background-color: transparent; color: light-dark(rgb(0, 0, 0), rgb(255, 255, 255));&quot;&gt;&lt;font face=&quot;Helvetica&quot; style=&quot;background-color: light-dark(#ffffff, var(--ge-dark-color, #121212)); font-size: 18px; color: rgb(0, 0, 0);&quot;&gt;&lt;br&gt;&lt;/font&gt;&lt;/strong&gt;&lt;/div&gt;&lt;/strong&gt;&lt;span style=&quot;background-color: light-dark(#ffffff, var(--ge-dark-color, #121212)); font-size: 16px; color: light-dark(rgb(0, 0, 0), rgb(255, 255, 255)); font-weight: bold;&quot;&gt;&lt;div style=&quot;text-align: left;&quot;&gt;&lt;span style=&quot;background-color: light-dark(#ffffff, var(--ge-dark-color, #121212)); color: light-dark(rgb(0, 0, 0), rgb(255, 255, 255));&quot;&gt;Если хочешь подняться «выше»:&lt;/span&gt;&lt;/div&gt;&lt;div style=&quot;text-align: left;&quot;&gt;&lt;span style=&quot;background-color: light-dark(#ffffff, var(--ge-dark-color, #121212)); color: light-dark(rgb(0, 0, 0), rgb(255, 255, 255));&quot;&gt;&lt;br&gt;&lt;/span&gt;&lt;/div&gt;&lt;/span&gt;&lt;p style=&quot;background-color: transparent; color: light-dark(rgb(0, 0, 0), rgb(255, 255, 255)); font-size: 16px; font-weight: bold; margin: 0px 0px 4px; line-height: var(--ds-md-line-height); display: inline !important;&quot;&gt;&lt;/p&gt;&lt;div style=&quot;text-align: left;&quot;&gt;&lt;strong&gt;Архитектура&lt;/strong&gt;&lt;span style=&quot;background-color: light-dark(#ffffff, var(--ge-dark-color, #121212));&quot;&gt;:&lt;/span&gt;&lt;/div&gt;&lt;p&gt;&lt;/p&gt;&lt;div style=&quot;text-align: left;&quot;&gt;&lt;span style=&quot;color: light-dark(rgb(0, 0, 0), rgb(255, 255, 255)); font-size: 16px; font-weight: bold; background-color: light-dark(#ffffff, var(--ge-dark-color, #121212));&quot;&gt;Книга: «Чистая архитектура» (Роберт Мартин).&lt;/span&gt;&lt;/div&gt;&lt;span style=&quot;background-color: light-dark(#ffffff, var(--ge-dark-color, #121212)); color: light-dark(rgb(0, 0, 0), rgb(255, 255, 255)); font-size: 16px; font-weight: bold;&quot;&gt;&lt;div style=&quot;text-align: left;&quot;&gt;&lt;span style=&quot;background-color: light-dark(#ffffff, var(--ge-dark-color, #121212)); color: light-dark(rgb(0, 0, 0), rgb(255, 255, 255));&quot;&gt;Практика: Раздели своё приложение на слои (UI, Services, DAL).&lt;/span&gt;&lt;/div&gt;&lt;div style=&quot;text-align: left;&quot;&gt;&lt;span style=&quot;background-color: light-dark(#ffffff, var(--ge-dark-color, #121212)); color: light-dark(rgb(0, 0, 0), rgb(255, 255, 255));&quot;&gt;&lt;br&gt;&lt;/span&gt;&lt;/div&gt;&lt;/span&gt;&lt;p style=&quot;background-color: transparent; color: light-dark(rgb(0, 0, 0), rgb(255, 255, 255)); font-size: 16px; font-weight: bold; margin: 0px 0px 4px; line-height: var(--ds-md-line-height); display: inline !important;&quot;&gt;&lt;/p&gt;&lt;div style=&quot;text-align: left;&quot;&gt;&lt;strong&gt;Системный дизайн&lt;/strong&gt;&lt;span style=&quot;background-color: light-dark(#ffffff, var(--ge-dark-color, #121212));&quot;&gt;:&lt;/span&gt;&lt;/div&gt;&lt;p&gt;&lt;/p&gt;&lt;div style=&quot;text-align: left;&quot;&gt;&lt;span style=&quot;color: light-dark(rgb(0, 0, 0), rgb(255, 255, 255)); font-size: 16px; font-weight: bold; background-color: light-dark(#ffffff, var(--ge-dark-color, #121212));&quot;&gt;Курсы: «System Design Interview» (Alex Xu).&lt;/span&gt;&lt;/div&gt;&lt;span style=&quot;background-color: light-dark(#ffffff, var(--ge-dark-color, #121212)); color: light-dark(rgb(0, 0, 0), rgb(255, 255, 255)); font-size: 16px; font-weight: bold;&quot;&gt;&lt;div style=&quot;text-align: left;&quot;&gt;&lt;span style=&quot;background-color: light-dark(#ffffff, var(--ge-dark-color, #121212)); color: light-dark(rgb(0, 0, 0), rgb(255, 255, 255));&quot;&gt;Инструменты: Docker, Kubernetes, Redis.&lt;/span&gt;&lt;/div&gt;&lt;div style=&quot;text-align: left;&quot;&gt;&lt;span style=&quot;background-color: light-dark(#ffffff, var(--ge-dark-color, #121212)); color: light-dark(rgb(0, 0, 0), rgb(255, 255, 255));&quot;&gt;&lt;br&gt;&lt;/span&gt;&lt;/div&gt;&lt;/span&gt;&lt;strong style=&quot;background-color: transparent; color: light-dark(rgb(0, 0, 0), rgb(255, 255, 255)); font-size: 16px;&quot;&gt;&lt;div style=&quot;text-align: left;&quot;&gt;&lt;strong style=&quot;background-color: transparent; color: light-dark(rgb(0, 0, 0), rgb(255, 255, 255));&quot;&gt;Процессы&lt;/strong&gt;&lt;span style=&quot;color: light-dark(rgb(0, 0, 0), rgb(255, 255, 255)); background-color: light-dark(#ffffff, var(--ge-dark-color, #121212));&quot;&gt;:&lt;/span&gt;&lt;/div&gt;&lt;/strong&gt;&lt;span style=&quot;background-color: light-dark(#ffffff, var(--ge-dark-color, #121212)); font-size: 16px; color: light-dark(rgb(0, 0, 0), rgb(255, 255, 255)); font-weight: bold;&quot;&gt;&lt;div style=&quot;text-align: left;&quot;&gt;&lt;span style=&quot;background-color: light-dark(#ffffff, var(--ge-dark-color, #121212)); color: light-dark(rgb(0, 0, 0), rgb(255, 255, 255));&quot;&gt;Внедри Git Flow в проекте.&lt;/span&gt;&lt;/div&gt;&lt;/span&gt;&lt;span style=&quot;background-color: light-dark(#ffffff, var(--ge-dark-color, #121212)); font-size: 16px; color: light-dark(rgb(0, 0, 0), rgb(255, 255, 255)); font-weight: bold;&quot;&gt;&lt;div style=&quot;text-align: left;&quot;&gt;&lt;span style=&quot;background-color: light-dark(#ffffff, var(--ge-dark-color, #121212)); color: light-dark(rgb(0, 0, 0), rgb(255, 255, 255));&quot;&gt;Попробуй настроить CI/CD (например, в GitHub Actions).&lt;/span&gt;&lt;/div&gt;&lt;/span&gt;" style="rounded=0;whiteSpace=wrap;html=1;" parent="1" vertex="1">
          <mxGeometry x="570" y="675" width="1320" height="2250" as="geometry" />
        </mxCell>
        <mxCell id="4t-1hhCyYwhDDtixqiCs-11" value="&lt;font style=&quot;font-size: 48px;&quot;&gt;&lt;b&gt;Подробное изучение C# backend от кирпичей до инфраструктуры, от Internal до Senior&lt;/b&gt;&lt;/font&gt;" style="text;html=1;align=center;verticalAlign=middle;whiteSpace=wrap;rounded=0;" parent="1" vertex="1">
          <mxGeometry x="452" y="-2220" width="1616" height="30" as="geometry" />
        </mxCell>
        <mxCell id="tQvu-oP2O_cZiJfRfZ87-1" value="" style="line;strokeWidth=4;direction=south;html=1;perimeter=backbonePerimeter;points=[];outlineConnect=0;" vertex="1" parent="1">
          <mxGeometry x="270" y="270" width="10" height="2740" as="geometry" />
        </mxCell>
        <mxCell id="tQvu-oP2O_cZiJfRfZ87-2" value="" style="line;strokeWidth=4;direction=south;html=1;perimeter=backbonePerimeter;points=[];outlineConnect=0;" vertex="1" parent="1">
          <mxGeometry x="2240" y="270" width="10" height="2740" as="geometry" />
        </mxCell>
        <mxCell id="tQvu-oP2O_cZiJfRfZ87-3" value="" style="line;strokeWidth=4;html=1;perimeter=backbonePerimeter;points=[];outlineConnect=0;" vertex="1" parent="1">
          <mxGeometry x="280" y="2990" width="1960" height="20" as="geometry" />
        </mxCell>
      </root>
    </mxGraphModel>
  </diagram>
</mxfile>
